<svg width="512" height="512" viewBox="0 0 512 512" fill="none" xmlns="http://www.w3.org/2000/svg">
<path d="M512 256C512 289.618 505.378 322.908 492.513 353.967C479.648 385.026 460.791 413.248 437.019 437.019L346.51 346.51C358.396 334.624 367.824 320.513 374.257 304.983C380.689 289.454 384 272.809 384 256H512Z" fill="#4FD1C5"/>
<path d="M437.019 437.019C389.01 485.029 323.895 512 256 512L256 384C289.948 384 322.505 370.514 346.51 346.51L437.019 437.019Z" fill="#B2F5EA"/>
<path d="M256 0C323.895 8.09645e-07 389.01 26.9713 437.019 74.9806L346.51 165.49C322.505 141.486 289.948 128 256 128V0Z" fill="#1D4044"/>
<path d="M437.019 74.9806C485.029 122.99 512 188.105 512 256L384 256C384 222.052 370.514 189.495 346.51 165.49L437.019 74.9806Z" fill="#319795"/>
</svg>
